<svg xmlns="http://www.w3.org/2000/svg" viewBox="0 0 140 92" role="img" aria-label="Vaisseau Minishoot stylisé">
  <defs>
    <linearGradient id="body" x1="10" x2="130" y1="46" y2="46" gradientUnits="userSpaceOnUse">
      <stop offset="0" stop-color="#d57b20"/>
      <stop offset="0.45" stop-color="#ffd45f"/>
      <stop offset="1" stop-color="#f19627"/>
    </linearGradient>
    <linearGradient id="glass" x1="48" x2="88" y1="24" y2="62" gradientUnits="userSpaceOnUse">
      <stop offset="0" stop-color="#a7ffff"/>
      <stop offset="1" stop-color="#35b7d4"/>
    </linearGradient>
    <filter id="shadow" x="-30%" y="-30%" width="160%" height="160%">
      <feDropShadow dx="0" dy="8" stdDeviation="5" flood-color="#000" flood-opacity="0.35"/>
    </filter>
  </defs>
  <g filter="url(#shadow)">
    <path d="M13 47c12-18 34-29 59-30 28-1 51 10 60 29-10 19-34 30-62 29-25-1-46-11-57-28Z" fill="url(#body)" stroke="#7a441d" stroke-width="5" stroke-linejoin="round"/>
    <path d="M20 46 2 31c-3-3-2-8 2-10l31 10c-7 5-12 10-15 15Z" fill="#f2a22b" stroke="#7a441d" stroke-width="5" stroke-linejoin="round"/>
    <path d="M20 47 2 63c-3 3-2 8 2 10l31-10c-7-5-12-10-15-16Z" fill="#f2a22b" stroke="#7a441d" stroke-width="5" stroke-linejoin="round"/>
    <path d="M61 24c18-1 30 7 35 22-7 14-19 21-36 20-11-6-17-13-18-21 2-9 8-16 19-21Z" fill="url(#glass)" stroke="#126d83" stroke-width="5"/>
    <path d="M58 30c9-4 19-2 26 5" fill="none" stroke="#eaffff" stroke-width="5" stroke-linecap="round" opacity=".75"/>
    <path d="M99 36c10 2 19 6 29 12-10 6-20 10-30 11 6-8 6-15 1-23Z" fill="#f7b83f" stroke="#7a441d" stroke-width="5" stroke-linejoin="round"/>
    <circle cx="118" cy="46" r="5" fill="#fff3a1"/>
  </g>
</svg>
